<?xml version="1.0" standalone="no"?>
<!DOCTYPE svg PUBLIC "-//W3C//DTD SVG 20010904//EN"
 "http://www.w3.org/TR/2001/REC-SVG-20010904/DTD/svg10.dtd">
<svg version="1.0" xmlns="http://www.w3.org/2000/svg"
 width="340.000000pt" height="31.000000pt" viewBox="0 0 340.000000 31.000000"
 preserveAspectRatio="xMidYMid meet">

<g transform="translate(0.000000,31.000000) scale(0.100000,-0.100000)"
fill="#000000" stroke="none">
<path d="M585 290 c-46 -18 -69 -58 -73 -124 -6 -98 29 -151 109 -162 55 -8
110 13 135 52 25 37 25 151 0 188 -30 47 -115 69 -171 46z m130 -44 c45 -45
45 -147 0 -192 -37 -36 -107 -34 -146 5 -26 26 -29 36 -29 89 0 50 4 66 26 91
22 27 32 31 75 31 39 0 55 -5 74 -24z"/>
<path d="M893 284 c-46 -23 -66 -72 -61 -151 3 -55 8 -68 34 -94 36 -36 89
-46 152 -30 l42 12 0 69 0 70 -51 0 c-58 0 -66 -23 -10 -28 32 -3 32 -4 29
-50 l-3 -47 -53 -3 c-47 -3 -56 0 -82 27 -27 26 -30 36 -30 91 0 55 3 65 31
92 29 29 33 30 95 25 66 -5 84 6 38 23 -37 15 -95 12 -131 -6z"/>
<path d="M2304 287 c-3 -8 -4 -36 -2 -63 l3 -49 90 0 90 0 0 60 0 60 -88 3
c-68 2 -89 0 -93 -11z m63 -42 c-10 -23 11 -28 23 -4 7 11 14 18 17 16 8 -9
-17 -47 -31 -47 -18 0 -39 27 -31 40 10 16 28 12 22 -5z m79 4 c3 -6 0 -18 -9
-26 -13 -13 -14 -12 -14 11 0 27 11 34 23 15z"/>
<path d="M2900 278 c-46 -31 -60 -61 -60 -128 0 -67 14 -97 60 -128 28 -19 44
-23 83 -19 67 6 99 32 116 96 12 44 12 58 0 102 -17 64 -49 90 -116 96 -39 4
-55 0 -83 -19z m135 -49 c30 -30 29 -130 -3 -161 -31 -31 -98 -30 -124 2 -23
28 -25 126 -3 157 26 37 93 38 130 2z"/>
<path d="M0 150 c0 -118 2 -140 15 -140 12 0 15 13 15 55 l0 55 59 0 c80 0
111 24 111 85 0 68 -24 85 -122 85 l-78 0 0 -140z m137 114 c12 -3 27 -19 33
-35 23 -54 -33 -98 -111 -87 -22 3 -24 8 -27 66 l-3 62 43 0 c24 0 53 -3 65
-6z"/>
<path d="M260 150 c0 -105 3 -140 13 -140 8 0 11 16 9 55 l-4 55 44 0 c42 0
44 -2 76 -54 17 -29 41 -56 52 -59 11 -3 20 -3 20 -1 0 2 -16 29 -36 59 l-37
55 32 29 c37 35 41 76 10 115 -19 24 -26 26 -100 26 l-79 0 0 -140z m148 104
c27 -19 29 -64 3 -88 -14 -13 -33 -16 -72 -14 l-54 3 -3 44 c-2 24 -1 50 2 57
7 20 95 18 124 -2z"/>
<path d="M1130 150 c0 -118 2 -140 15 -140 12 0 15 13 15 55 l0 55 38 0 c34 0
40 -5 72 -54 19 -30 43 -57 52 -59 24 -7 23 -5 -18 57 l-35 53 30 31 c39 39
42 88 8 120 -20 19 -35 22 -100 22 l-77 0 0 -140z m148 104 c14 -10 22 -26 22
-44 0 -44 -23 -60 -86 -60 l-54 0 0 60 0 60 48 0 c27 0 57 -7 70 -16z"/>
<path d="M1440 158 c-29 -73 -54 -139 -57 -146 -4 -8 0 -10 12 -6 9 4 25 27
36 51 l19 44 62 -3 63 -3 15 -42 c9 -28 20 -43 31 -43 14 0 7 24 -39 140 -42
105 -60 140 -73 140 -13 0 -30 -33 -69 -132z m95 40 c10 -29 20 -59 23 -65 3
-9 -10 -13 -47 -13 -28 0 -51 3 -51 6 0 16 43 124 49 124 4 0 15 -24 26 -52z"/>
<path d="M1680 150 c0 -116 2 -140 15 -140 12 0 15 22 17 118 l3 117 49 -72
c27 -40 50 -73 52 -73 2 0 25 32 51 72 l48 71 3 -116 c2 -95 5 -117 17 -117
13 0 15 24 15 140 0 130 -1 140 -19 140 -11 0 -35 -25 -65 -70 -25 -38 -48
-70 -50 -70 -2 0 -24 32 -50 70 -31 48 -53 70 -66 70 -19 0 -20 -7 -20 -140z"/>
<path d="M2101 268 c-5 -13 -30 -75 -55 -138 -25 -63 -46 -118 -46 -122 0 -24
38 16 49 51 l12 41 64 0 63 0 18 -45 c9 -25 23 -45 31 -45 10 0 13 6 9 18 -83
220 -102 262 -119 262 -10 0 -21 -10 -26 -22z m52 -71 c8 -23 18 -50 22 -59 6
-16 1 -18 -44 -18 -28 0 -51 4 -51 10 0 22 42 120 50 115 4 -3 15 -24 23 -48z"/>
<path d="M2560 150 l0 -140 25 0 c24 0 25 3 25 60 l0 61 62 -3 62 -3 -3 -58
c-2 -55 -2 -57 23 -57 l26 0 0 140 0 140 -26 0 c-25 0 -25 -2 -23 -57 l3 -58
-62 -3 -62 -3 0 61 c0 57 -1 60 -25 60 l-25 0 0 -140z"/>
<path d="M3170 150 l0 -140 25 0 c23 0 25 3 25 50 0 46 2 50 24 50 18 0 32
-13 55 -49 24 -37 39 -50 61 -53 17 -3 30 -2 30 1 0 4 -16 30 -35 58 -33 50
-34 52 -14 58 26 9 49 61 42 98 -10 49 -45 67 -134 67 l-79 0 0 -140z m152 83
c23 -21 23 -38 -2 -63 -13 -13 -33 -20 -60 -20 l-40 0 0 50 0 50 42 0 c24 0
49 -7 60 -17z"/>
<path d="M2283 235 c0 -27 2 -38 4 -22 2 15 2 37 0 50 -2 12 -4 0 -4 -28z"/>
<path d="M2503 235 c0 -27 2 -38 4 -22 2 15 2 37 0 50 -2 12 -4 0 -4 -28z"/>
<path d="M2371 156 c2 -2 14 -9 27 -15 18 -10 22 -9 22 4 0 10 -9 15 -27 15
-14 0 -24 -2 -22 -4z"/>
<path d="M2370 126 c0 -16 38 -42 47 -32 7 7 -5 24 -28 36 -15 8 -19 7 -19 -4z"/>
<path d="M2370 79 c0 -12 29 -38 43 -39 14 0 7 23 -10 36 -22 17 -33 17 -33 3z"/>
<path d="M2367 31 c-6 -25 0 -31 31 -31 27 0 26 17 -5 37 -18 12 -21 12 -26
-6z"/>
</g>
</svg>
